<?xml version="1.0" encoding="UTF-8"?>
<svg width="512" height="512" viewBox="0 0 512 512" fill="none" xmlns="http://www.w3.org/2000/svg">
  <rect width="512" height="512" rx="256" fill="#3B82F6"/>
  <path d="M356 192H316V164C316 129.2 287.3 100 253 100C218.7 100 190 129.2 190 164V192H150L134 432H372L356 192ZM210 164C210 139.7 229.2 120 253 120C276.8 120 296 139.7 296 164V192H210V164ZM327.9 412H178.1L191.2 212H214V242C214 247.5 218.5 252 224 252C229.5 252 234 247.5 234 242V212H272V242C272 247.5 276.5 252 282 252C287.5 252 292 247.5 292 242V212H314.8L327.9 412Z" fill="white"/>
</svg> 